<?xml version="1.0" encoding="utf-8"?>
<!-- Generator: Adobe Illustrator 24.0.2, SVG Export Plug-In . SVG Version: 6.00 Build 0)  -->
<svg version="1.1" xmlns="http://www.w3.org/2000/svg" xmlns:xlink="http://www.w3.org/1999/xlink" x="0px" y="0px"
	 viewBox="0 0 320 80" style="enable-background:new 0 0 320 80;" xml:space="preserve">
<style type="text/css">
	.st0{display:none;}
	.st1{display:inline;fill:#E8C600;}
	.st2{fill:#FFFFFF;}
</style>
<g id="Capa_2" class="st0">
	<rect x="-90" y="-66" class="st1" width="488" height="217"/>
</g>
<g id="Capa_1">
	<g>
		<path class="st2" d="M80.22,28.09c-2.23-1.86-5.09-3.1-8.07-3.1c-2.23,0-5.21,1.3-5.21,3.91c0,2.73,3.29,3.79,5.4,4.47l3.1,0.93
			c6.52,1.92,11.55,5.21,11.55,12.79c0,4.66-1.12,9.43-4.84,12.6c-3.66,3.1-8.57,4.41-13.28,4.41c-5.9,0-11.67-1.99-16.45-5.34
			l5.21-9.81c3.04,2.67,6.64,4.84,10.8,4.84c2.86,0,5.9-1.43,5.9-4.72c0-3.41-4.78-4.59-7.39-5.34
			c-7.64-2.17-12.66-4.16-12.66-13.22c0-9.5,6.77-15.7,16.14-15.7c4.72,0,10.49,1.49,14.65,3.85L80.22,28.09z"/>
		<path class="st2" d="M105.11,18.78c0,3.48-2.86,6.33-6.33,6.33c-3.48,0-6.33-2.86-6.33-6.33c0-3.48,2.86-6.33,6.33-6.33
			C102.26,12.44,105.11,15.3,105.11,18.78z"/>
		<rect x="93.13" y="31" class="st2" width="11.3" height="31.84"/>
		<path class="st2" d="M112.75,16.05h18.62c10.06,0,17.01,4.66,17.01,15.39c0,11.05-5.96,15.89-16.57,15.89h-6.89v15.52h-12.17
			V16.05z M124.91,37.52h2.05c4.41,0,8.75,0,8.75-5.71c0-5.9-4.03-5.96-8.75-5.96h-2.05V37.52z"/>
		<path class="st2" d="M161.72,54.72l-3.23,8.13h-12.91l18-46.8h13.28l17.63,46.8h-12.97l-3.04-8.13H161.72z M170.22,30.51h-0.12
			l-5.03,14.9h10.12L170.22,30.51z"/>
		<path class="st2" d="M232.35,31.75c-2.48-3.35-6.52-5.15-10.68-5.15c-7.45,0-12.48,5.71-12.48,12.97
			c0,7.39,5.09,12.72,12.66,12.72c3.97,0,7.95-1.92,10.49-4.97v14.59c-4.03,1.24-6.95,2.17-10.74,2.17
			c-6.52,0-12.72-2.48-17.57-6.89c-5.15-4.66-7.51-10.74-7.51-17.69c0-6.39,2.42-12.54,6.89-17.13c4.59-4.72,11.24-7.57,17.81-7.57
			c3.91,0,7.51,0.87,11.11,2.36V31.75z"/>
		<path class="st2" d="M252.65,26.35v7.82h13.72v10.3h-13.72v8.07h14.46v10.3h-26.63v-46.8h26.63v10.3H252.65z"/>
	</g>
	<g>
		<path class="st2" d="M2.59,48.48V32.56L36.91,9.21v18.28L16.15,40.46l20.76,13.09v18.52L2.59,48.48z"/>
		<path class="st2" d="M281.68,71.71V53.43l20.76-12.97l-20.76-13.09V8.86L316,32.44v15.92L281.68,71.71z"/>
	</g>
</g>
</svg>
